<?xml version="1.0" encoding="utf-8"?>
<!-- Generator: Adobe Illustrator 18.0.0, SVG Export Plug-In . SVG Version: 6.00 Build 0)  -->
<!DOCTYPE svg PUBLIC "-//W3C//DTD SVG 1.1//EN" "http://www.w3.org/Graphics/SVG/1.1/DTD/svg11.dtd">
<svg version="1.1" id="Layer_1" xmlns="http://www.w3.org/2000/svg" xmlns:xlink="http://www.w3.org/1999/xlink" x="0px" y="0px"
	 viewBox="0 0 1400 980" enable-background="new 0 0 1400 980" xml:space="preserve">
<g>
	<g>
		<path fill="#EF4E7C" d="M1337.6,46.5c-36.2-2.1-72.3-4.2-108.5-6.3c-93.1-5.4-186.3-10.8-279.4-16.6
			c-113.1-7-226.1-14.6-339.1-22.2C604,0.9,597.4,0.4,590.8,0H0v57c154.8,4.5,309.5,8.9,464.3,13.4C620.5,74.9,785,80,941.2,73.6
			c-48.4,12.2-98.7,15.1-148.6,17.1C558.4,99.9,324,89.2,89.6,84.8c-29.9-0.5-59.8-1-89.6,0.6V247c24.5,0.2,49.3-3.4,73.7-6.2
			c185.2-21.7,372.3-2.8,558.6,5.3c98.7,4.3,197.5,5.6,296.3,3.8c77.5-1.4,154.9-4.6,232.3-7.8c79.7-3.3,159.4-6.6,239.1-10V174
			c-271.6,12.6-543.6-21.1-815.6-18.9c122-13.8,245.9-18.9,368.4-9.8c58.7,4.3,117.4,11.3,176.1,8.9c29.7-1.2,59.3-4.7,89-5.5
			c60.6-1.4,122.1,8.9,182.1,5.1V45.5C1379.7,48.8,1358.3,47.7,1337.6,46.5z"/>
		<path fill="#F48483" d="M89.6,84.8c234.3,4.3,468.7,15.1,702.9,5.8c49.9-2,100.2-4.9,148.6-17.1C785,80,620.5,74.9,464.3,70.4
			C309.5,65.9,154.8,61.5,0,57v28.5C29.8,83.9,59.8,84.3,89.6,84.8z"/>
		<path fill="#F69988" d="M341.1,268.2c-113.7-2.7-227.4-5.4-341.1-8.1V343c440-37.1,883.7,1.3,1324.7-25.1
			c25.1-1.5,50.3-3.2,75.3-6.4V263C1047.7,285,694.1,276.6,341.1,268.2z"/>
		<path fill="#F1647C" d="M590.8,0c6.6,0.4,13.2,0.9,19.9,1.3c113,7.6,226,15.2,339.1,22.2c93.1,5.8,186.3,11.2,279.4,16.6
			c36.2,2.1,72.3,4.2,108.5,6.3c20.8,1.2,42.1,2.3,62.4-1.1V0H590.8z"/>
		<path fill="#F48483" d="M1217.9,148.8c-29.7,0.7-59.3,4.3-89,5.5c-58.8,2.3-117.5-4.6-176.1-8.9c-122.4-9.1-246.4-3.9-368.4,9.8
			c272-2.2,544,31.5,815.6,18.9v-20.2C1340.1,157.7,1278.5,147.3,1217.9,148.8z"/>
		<path fill="#F1647C" d="M928.6,249.9c-98.8,1.7-197.6,0.5-296.3-3.8c-186.3-8.1-373.4-27-558.6-5.3c-24.4,2.9-49.2,6.4-73.7,6.2
			v13.2c113.7,2.7,227.4,5.4,341.1,8.1c353,8.4,706.6,16.7,1058.9-5.3v-30.9c-79.7,3.3-159.4,6.6-239.1,10
			C1083.5,245.3,1006.1,248.5,928.6,249.9z"/>
		<path fill="#F1647C" d="M0,343v17.9c355.1-9.3,710.3-10.5,1065.5-3.7c83,1.6,166.2,3.6,249-2.9c28.6-2.3,57.1-5.5,85.5-9.2v-33.6
			c-25,3.1-50.2,4.9-75.3,6.4C883.7,344.2,440,305.8,0,343z"/>
		<path fill="#FCBE85" d="M1065.5,357.2c-355.1-6.8-710.4-5.6-1065.5,3.7v82.8c99.9-3.2,237-7.5,336.9-10.6
			c34.1-1.1,68.1-2.2,102.2-1c30.8,1,61.6,3.9,92.4,2.3c31.8-1.6,63.2-7.8,94.8-11.6c50.6-6.1,101.8-5.9,152.8-5.4
			c205.6,1.9,417.2,9.1,620.9-18.3v-54c-28.4,3.7-56.9,6.9-85.5,9.2C1231.7,360.8,1148.5,358.7,1065.5,357.2z"/>
		<path fill="#F7D98F" d="M974.5,449.9c-41.9-0.1-83.9-0.2-125.8-0.3c-207.9-0.4-415.9-0.9-623.8,0.6c-74,0.5-150.9,4.4-225,5.4V980
			h1400V594h-267l124-6.5l40-6.5h103V449.2C1262.5,448.9,1112,450.2,974.5,449.9z"/>
		<path fill="#F1657C" d="M779.1,417.3c-51-0.5-102.1-0.7-152.8,5.4c-31.6,3.8-63,10-94.8,11.6c-30.8,1.5-61.6-1.3-92.4-2.3
			c-34-1.1-68.1,0-102.2,1c-99.9,3.2-237,7.5-336.9,10.6v12c74-1,150.9-4.9,225-5.4c207.9-1.5,415.9-1,623.8-0.6
			c41.9,0.1,83.9,0.2,125.8,0.3c137.5,0.3,288-1,425.5-0.7V399C1196.3,426.4,984.7,419.1,779.1,417.3z"/>
		<polygon fill="#F1657C" points="1257,587.5 1133,594 1400,594 1400,581 1297,581 		"/>
	</g>
	<polygon fill="#F58F8D" points="771.3,619.1 0,619.1 0,608 1400,608 1400,619.1 	"/>
	<polygon fill="#F1657C" points="0,490 1400,490 1400,470.6 793.9,470.6 	"/>
	<g>
		<path fill="#F37567" d="M1400,670.5c-206.7,2.9-413.5,5.9-620.2,8.8c-51.4,0.7-102.9,1.5-154.3,2.2c-208.5,3-417,5.9-625.4,8.9
			V703h1400V670.5z"/>
		<path fill="#F1697F" d="M779.8,679.3c206.7-2.9,413.5-5.9,620.2-8.8v-20.7c-371.2,12.9-742.7,15.7-1114,8.3
			c-57.9-1.2-115.9-2.6-173.8-0.3c-37.5,1.5-74.8,4.5-112.2,8.1v24.5c208.5-3,417-5.9,625.4-8.9C676.9,680.8,728.3,680,779.8,679.3z
			"/>
		<path fill="#F6D881" d="M1061.3,629.7c112.9-1.6,225.8-3.2,338.7-4.7v-5.9H0v22.3c84.2-0.5,168.4-1,252.5-1.8
			C522.1,637.2,791.7,633.5,1061.3,629.7z"/>
		<path fill="#F58F8D" d="M286,658.1c371.3,7.4,742.8,4.6,1114-8.3v-24.8c-112.9,1.6-225.8,3.2-338.7,4.7
			c-269.6,3.8-539.2,7.5-808.8,9.9c-84.2,0.7-168.3,1.3-252.5,1.8v24.6c37.3-3.6,74.7-6.6,112.2-8.1
			C170.1,655.6,228.1,657,286,658.1z"/>
		<rect y="703" fill="#F9AB8B" width="1400" height="14"/>
		<path fill="#F0575A" d="M1318.7,797.3c-37.2-1.2-74.1-6.5-111.2-7.7c-28.3-0.9-56.7,0.7-85,2.2c-39.8,2.2-77.6,4.4-117.4,6.6
			c90.7-11.7,182.1-17.3,273.5-16.6c40.3,0.3,81.2,1.7,121.3-1.6V717H0v263h1400V794.2C1373,796.7,1345.9,798.1,1318.7,797.3z"/>
		<path fill="#FDCDAB" d="M1278.7,781.8c-91.4-0.7-182.9,4.9-273.5,16.6c39.8-2.2,77.6-4.4,117.4-6.6c28.3-1.6,56.6-3.1,85-2.2
			c37.2,1.2,74.1,6.6,111.2,7.7c27.1,0.9,54.2-0.5,81.3-3.1v-14C1359.9,783.5,1319,782.1,1278.7,781.8z"/>
	</g>
	<path fill="#F48A8E" d="M1374.7,735.4c-147.2,31-299.5,17.1-449.7,9.4c-220.6-11.3-442-9-662.3,7c235.3-4.8,469.2,1.9,704.3,13.4
		C1103.6,771.8,1245.8,781.6,1374.7,735.4z"/>
	<path fill="#F8A78D" d="M1310,731.2c-85.4-12.1-172.2-2.8-258.4-0.6c-31.6,0.8-63.3,0.7-94.9,0.5c-37.9-0.2-75.8-0.3-113.6-0.5
		c3.4,0.6,6.6,2.9,10,3.4c45,7.1,90.7,9.4,136.1,6.6c19.8-1.2,39.5-3.3,59.3-3.4c30.8-0.1,61.4,5,92.1,6.6
		C1197.5,747.1,1253.6,739.4,1310,731.2z"/>
	<path fill="#FFD367" d="M793.9,647.8c-64.5-7.3-129.9-5.5-193.9,5.4C665.6,659.1,728.6,655.4,793.9,647.8z"/>
	<g>
		<path fill="#994299" d="M733.7,849.9c219.5,43.9,448.9,87.4,666.3,45.8V801c-224,67.3-471.2,30.3-701.5-10.5S233.9,778.9,0,778.9
			v41.6C236.9,753.7,491.3,801.5,733.7,849.9z"/>
		<path fill="#8B3C97" d="M1400,895.7c-217.4,41.6-446.7-2-666.3-45.8C491.3,801.5,236.9,753.7,0,820.5v42.2
			c117-51.7,252.9-50.3,379.4-26.9c136,25.1,266.5,73.7,401.6,103.1c111.8,24.3,225.8,35.3,340.2,41.2H1400V895.7z"/>
		<path fill="#773494" d="M379.4,835.7C252.9,812.4,117,811,0,862.7V980h1121.2c-114.4-5.9-228.4-16.9-340.2-41.2
			C645.9,909.4,515.4,860.9,379.4,835.7z"/>
	</g>
	<path fill="#5D3092" d="M1400,878.6V980H0V878.6c3-6.9,7.5-9.2,13.7-13.5c-2.7-10.9-3-23.6-1.2-34.7c8.6,9.2,15.5,19.9,20.4,31.4
		c4.4-1.3,10.1-0.8,14.1,1.3c0.2-10.2,0.4-19.7,3.8-29.3c0.4,10.8,0.7,21.7,1.1,32.5c8.7-15.7,13.9-33.3,15.2-51.2
		c0.3,17.9-2.1,35.8-7.1,53.1c8.1-8.8,17.1-16,27.3-22.1C81,855.9,74.7,866,68.5,876c1.1-0.6,2.1-1.1,3.2-1.7
		c6.3,1.3,11.6,4.6,15.9,9.4c4.8-0.8,8.6,0.8,12.7,3.3c10.2-7.4,22.3-8.1,34.5-5.3s23.3,9.7,32.9,17.9c0,0.7,0,1.3,0,2
		c20,6.6,42.3,8.1,63.2,9.9c21,1.8,42.8,5.9,59.3,19c12.6-8.8,28.8-12.9,44.2-11.7c-2.8-7.4-6-13.9-8.8-21.2
		c4.1,6.4,8.3,12.7,12.4,19.1c-0.7-16.7-1.8-33.8-2.5-50.4c3.3,16,6.6,31.9,9.9,47.9c3.2-18.7,4.3-38.3,5.3-57.3
		c0.7,18.2,1.4,36.4,2,54.7c3.6-13.8,7.1-27.6,10.7-41.4c-1.2,16-2.5,32.1-3.7,48.1c3.3-6.4,7-12.2,10.3-18.6
		c1.2,7.4,2.4,14.8,3.6,22.3c5.7-17.9,11.4-35.8,17.1-53.7c7,18.1,16.2,34.8,29.9,48.6c8-11.7,15.1-22.8,23-34.5
		c-4.6,10-7.3,20.9-8,32c10.5-14.8,19-30.9,25.5-47.8c-4.3,19.3-8.6,38.6-12.9,57.9c4.9-6,10.3-11.6,16.2-16.6
		c-3.7,7.2-6,15.2-6.7,23.3c13.5,4.5,25.7,9.7,39.3,14.2c0.1-18.3,8.6-35.8,23.4-46.7c-4.7,15-3.9,31.6,2.3,46.1
		c2.4,5.5,5.5,11.4,4.1,17.2c19.8-21.9,25.1-54.9,16.7-83.2c18,16.8,29.9,39.9,33.1,64.3c14.4-24.6,34.7-44.7,59.9-58
		c-16.3,18.6-27.5,41.6-32.2,65.9c12.6-14.2,30-20.2,48.9-17.9c-2.3-11.8-0.4-24.8,2.7-36.5c1.9,11.5,5.2,22.7,9.7,33.4
		c5.9-31.1,2.7-64.4-7.2-94.5c9.4,11.5,18.7,23.1,28.1,34.6c9.1,11.2,18.3,22.6,23.5,36c5.2,13.4,5.9,29.4-1.7,41.6
		c11.2-30.6,37.7-52.3,63.2-72.7c-12.1,24.9-19.7,52.1-22.4,79.7c15.9-10.6,37-14.3,55.3-8.6c10.2-4.4,22.5-8.1,33.6-7.4
		c-5.9-10.3-14.9-18.8-25.6-24c14.6,1.6,27.3,10.5,38.1,20.5c-3.4-18-12.2-35.1-25.5-47.8c19.4,5.3,37,16.8,49.7,32.4
		c4.4-21.7,22.1-39.5,43.3-45.8c-12.7,18.8-21.2,40.6-24.4,63.1c8.4-15,24.9-26.8,41.5-31.1c-9.7,11.7-17.1,25.1-21.9,39.5
		c19.6-4.2,40.7-0.5,57.7,10.2c6.4-13.6,14.9-26.1,28.4-32.5c13.5-6.4,31.1-5.6,42.1,4.6c4.6-4,11.8-6,17.6-4
		c5.7,2,10.2,7.2,11.3,13.2c5.3-6.4,15-7.6,22.9-5.2s14.6,7.7,21.1,13c8.3-6.5,19-8.3,29.1-5.2c-3.6-6.2-5.5-12.5-5-19.6
		c3.3,5.5,7.7,10.2,12.9,13.8c-5.9-9.3-8.5-20.8-7.2-31.8c1.4-11,6.6-21.4,14.7-29.1c-1.9,18.9,1.4,38.2,9.3,55.5
		c-1.3-22.6,2.1-46.1,11.4-66.7c-4.3,25.7-3,52.3,3.8,77.4c8.7-20.2,12.5-43.3,11.9-65.3c8.1,19.9,11.5,41.8,9.9,63.3
		c7.3-0.7,14.3,3.7,16.2,10.7c8.9-3.8,18.5-4.2,27.4-0.6c1-11.2,6.9-19.9,16.6-25.5c-7.9-12.8-15.1-25.5-15.3-40.6
		c5,10.3,9.9,20.5,14.9,30.8c2.6-15.7,1.6-31.9-2.7-47.2c8.8,17.7,14.7,36.9,17.6,56.4c9.8-21.9,27.3-39,49.8-47.3
		S1378.3,868.3,1400,878.6z"/>
	<path fill="#773494" d="M838.1,841.9c-8.3,8.6-21.5,9.5-33.5,9.3c-72-1.1-142.6-21.9-214.6-22.1c22.3-2.8,44.8-5.7,67.3-5.5
		C718,824.1,777.6,846.2,838.1,841.9z"/>
	<path fill="#773494" d="M1143.7,866.4c-12.4,3.5-24.8,7.3-37.6,8.9c-16.5,2-33.5,0.1-49.2-5.5c69.1,4.8,136.6-35.4,205.1-25.6
		C1222,848.1,1182.4,855.5,1143.7,866.4z"/>
	<path fill="#773494" d="M1126.2,890.3c-15.8,2.4-31.9,1.8-47.9,1.2c-18.4-0.7-36.8-1.4-55-4.4c-10.5-1.7-20.9-4.2-31.3-6.6
		c-15.9-3.8-31.8-7.5-47.7-11.3C998.2,897.9,1067.4,906.4,1126.2,890.3z"/>
	<path fill="#773494" d="M924.9,845.3c-13.5-6.7-27.2-13.5-42-15.8c-11.9-1.9-24.1-0.7-36.2-0.6c-14,0.1-28-1.1-41.7-3.7
		c11.6,8,26.7,10.2,40.7,11.3c4.7,0.4,9.3,0.7,14,0.3c4.5-0.4,8.9-1.4,13.3-1.9C889.7,833.2,909.1,839.7,924.9,845.3z"/>
	<path fill="#773494" d="M833.1,866.8c-2.3-1.3-4.7-3.1-4.8-5.6c22,4.4,44.8,8.8,66.8,4.5C876.6,876.8,852,877.3,833.1,866.8z"/>
	<path fill="#773494" d="M1040.4,862.6c-3.4,0-6.8,0-10-0.7c-8.6-1.7-15.7-7.7-23.2-12.2c17.8,4.8,36.2,8.2,54.6,7.9
		c11.9-0.2,23.8-2,35.6-3.7C1080,862.5,1059.8,862.6,1040.4,862.6z"/>
	<path fill="#773494" d="M635.6,853.3c-6.8,0.4-13.5,1.2-20.3,1.6c-45.2,2.8-89.2-13.8-131.5-30.2c20.8-6.6,42.2,5.8,63,12.2
		c10.3,3.2,21.1,5,31.7,6.8C597.6,847,616.6,850.2,635.6,853.3z"/>
	<path fill="#773494" d="M470.1,790.2c14.4-0.6,29-0.8,43.2,1.6c22.9,3.9,44.6,14.4,67.8,15.9c-22.7,3.9-46.3,2.8-68.6-3
		c-3.2-0.8-6.4-1.8-9.6-2.7c-2.8-0.8-5.5-1.6-8.3-2.5C486.2,797,477.7,794.5,470.1,790.2z"/>
	<path fill="#FDFCE6" d="M1023.2,415.7c-123.7,0-227,87.2-251.9,203.4h503.9C1250.2,502.8,1146.9,415.7,1023.2,415.7z"/>
	<path fill="#F1657C" d="M1210.1,540.4c-111.3,0.9-222.7,1.7-334,2.6c-53,0.4-106,0.8-159,1.2c-234.6,1.8-469.3,3.6-703.9,5.5
		c171.5-15.9,343.7-25.3,515.9-25.1c65.1,0.1,130.1,3.8,195.2,5.6c17.2,0.5,34.3,0.9,51.5,1.4c54.2,1.5,108.5,2.9,162.8,2.5
		C1028.2,533.4,1120.8,531.6,1210.1,540.4z"/>
	<path fill="#F1657C" d="M1009.2,590.5c-116.8,8.6-234.4,7.2-351-4.3C775.7,586.5,891.7,590.3,1009.2,590.5z"/>
	<path fill="#F58F82" d="M965.7,188.6c-112.1-3.4-224.2-6.7-336.2-10.1c-48.6-1.5-97.2-2.9-145.8-4.4c-37.5-1.1-75.1-2.3-112.6-2.8
		c-120.9-1.7-241.9,3-362.3,13.9c143-2.1,285.9,5.5,428.7,10.5c258.9,9,518.1,9.4,777,1.3C1131.6,193.6,1048.7,191.1,965.7,188.6z"
		/>
	<path fill="#5D3092" d="M495.5,641.8c-0.5-5.3,0.3-10.5-0.6-15.8c-0.9-5.4-2.6-10.6-3.6-16c-0.5-3-0.6-6.1-0.4-9.1
		c0.2-2.2,0.9-4.5,0.5-6.8c-0.4-2.5-1.7-4-2.6-6.3c-0.9-2.3,1.2-5.7,1.9-7.8c1.5-4.2-1.2-7.4-3.4-10.6c-0.5-0.8-1.1-1.6-1.6-2.3
		c0-8-1.2-18.4-6.9-20.5c-7.3-3.6-14.6-7.1-22-10.7c-3.6-1.8-7.2-3.5-10.9-5.2c-2.1-1-4-2.2-6-3.3c-2.1-2.7-3.9-5.5-6.1-8.1
		c-1-1.2-2.7-1.8-4.5-2.1c-1.2-1.1-2.7-2-4.2-2.5c0,0,0-0.1,0-0.1c-0.3-1.3-0.7-2.6-1.1-3.9c0.4-0.5,0.6-0.8,0.6-1.6
		c0-1.8-0.7-1.3,0-3.9c0.3-1,0.9-2.1,1.4-3.1c1.1-2.5,1.2-5.3,1.1-8.1c0.6-1.4,1-2.9,1.1-4.5c0.2-1.9-0.5-3.8-1-5.7
		c-0.6-2.2,0.4-4.4-0.6-6.6c-0.8-1.9-1.9-3-3.4-4.2c-1.7-1.3-2-3.7-3-5.5c-1.3-2.5-4.1-2.6-6.6-3.1c-0.5-1.8-1.2-3.7-2.2-5.2
		c0-0.1-0.1-0.1-0.2-0.1c-0.1-0.3-0.5-0.2-0.5,0.1c0.1,0.9,0.1,1.9,0,2.8c-1.4-2.6-3.5-5.2-6.1-5.9c-0.1-0.1-0.2-0.1-0.3-0.2
		c-0.4-0.2-0.7,0.3-0.4,0.6c1.3,1,2,2.2,2.5,3.6c-1.2-0.7-2.6-1.3-4.1-1.5c-1.9-0.3-3.7,0.4-5.3,1.3c-1.5-0.1-2.9,0.1-4.4,0.9
		c-1.1,0.6-2.1,1.7-3,2.5c-0.4,0.4-0.9,0.8-1.3,1.1c-2.6,0.4-5,1.4-7.3,2.9c-5,3.2-7.2,10.6-13.8,11c-0.7,0-0.7,0.9-0.1,1.1
		c0.8,0.3,1.5,0.6,2.3,0.9c-1.8,0.6-3.5,1.1-5.4,1.5c-0.4,0.1-0.4,0.6-0.1,0.8c0.4,0.3,0.9,0.6,1.3,0.9c-0.2,0.1-0.4,0.1-0.6,0.2
		c-0.5,0.1-0.4,0.8,0,0.9c1,0.3,1.8,0.4,2.7,0.2c-0.4,0.6-0.8,1.2-1.3,1.8c-0.1,0.2-0.1,0.5,0,0.7c0.9,1.6,2.3,2.7,4,2.9
		c-0.2,3.2-0.4,6.5-0.5,9.7c-0.1,2.4,1.5,3.9,3.2,5.4c-0.6,4.4-2,8.7-2.5,13.1c-0.4,2.9,3.9,2.2,6.3,1.8c0,0.7-0.1,1.4,0,2
		c0,0.9,1,1.5,2,1.9c0,0.4,0,0.8,0.1,1.2c0.2,0.9,0.8,1.9,1.2,2.8c0.2,0.5,0.4,1,0.7,1.5c-2.6,0.6-5.2,1.2-7.7,1.8
		c-4.1,0.9-8.4,1.7-11.9,4c-1.1-0.4-2.4-0.1-3.6,0.5c-2.7,1.2-3.9,5.8-4.9,8.3c-2.2,5.4-3.7,11.3-4.4,17.2
		c-2.8,7.2-5.3,14.4-8.4,21.4c-1,2.2-2.9,4.9-2.5,7.5c0.3,1.6,0.6,3.3,0.9,4.9c-2,6.7-4.2,13-7.9,19.2c-1.9,3.2-5.1,6.2-6.5,9.6
		c-0.9,2.2-1,4.9-0.9,7.5c-1.9,4.2-5,7.9-7.1,12c-3.1,5.8-4.7,12.3-7.5,18.2c-4.9,10.2-9.1,20.6-13.2,31.1c-1.9-2.9-4-5.8-5.8-8.9
		c-3.2-5.7-6-11.5-9.4-17.1c-4.5-7.5-9.4-15.1-14.9-22.1c-2.4-5.8-5-11.5-7.4-17.2c-2.7-6.2-5-12.4-7.1-18.7
		c-0.4-4.4-1.3-8.7-2.5-13.1c-1.5-5.4-2.7-11.8-5.9-16.5c-2.7-3.9-7.9-5.8-12.1-7.4c-5.5-2.1-11-3.8-16.2-6.4
		c-0.2-0.5-0.5-1.1-0.7-1.6c-0.9-1.9-2.2-3.5-3.6-5c2.3-5.1,4.6-10.3,6.6-15.5c0.9-2.3,1.9-4.4,1.7-6.9c-0.2-2-0.7-3.9-1.1-5.8
		c1-1.8,2.1-3.8,1.9-5.8c-0.2-2-0.8-4.2-1.6-6.3c1-3,1.2-6.5-0.4-9.2c-1.6-2.5-4.4-4.6-7.3-6.3c-7.3-6.3-16.3-10.2-26-7.5
		c-8.6,2.4-17.6,9.6-18.8,18.7c-1.1,0.3-2.2,0.2-3.4,0.5c-1.2,0.3-2.2,0.8-3.1,1.7c-1.1,1.1-1.1,2.8-0.6,4.4c-2.3,0.7-4.3,2.2-3.2,5
		c0.5,1.2-2.6,2.3-2,4c0.2,0.6,0.6,1.1,1,1.6c-0.6,2.3-0.3,4.6,1,6.6c-0.6,1.4-0.7,3-0.5,4.5c-1.1,0.6-2,1.6-2.5,2.7c0,0,0,0,0,0
		c-2.7,1.9-4.2,5.1-3.6,8.6c0,0.5,0.1,1,0.4,1.5c0,0,0,0,0,0.1c0,0,0,0.1,0.1,0.1c0.1,0.1,0.2,0,0.2-0.1c0.2-1.9,0.4-3.3,1.7-4.9
		c0.5-0.6,1.2-1,1.9-1.3c0.7,1.6,1.9,2.9,3.3,3.8c-1.6,1.2-2.8,2.9-3,4.9c-0.1,1.5,0.2,2.7,0.8,3.8c-1.5,0.8-2.1,3-2,4.8
		c-5.2,2.1-10.4,4.2-14.6,8.1c-4.2,3.9-6.2,9.6-7.3,15.1c-1.5,8.2-1.1,17,0.2,25.6c0.4,4.7,1,9.4,1.1,14.1
		c0.2,6.3-1.5,12.9-2.8,19.4c-2.8,7.9-4.1,16.2-4.6,24.6c-0.7,11.7,1,23.5,0,35.2c-1.8,1.4-2.2,3.1-2.5,5.7c-0.1,1-0.7,2.5-0.4,3.5
		c0.2,0.6,0.6,1.1,1.1,1.6c0,2.1,0,4.3,0.1,6.4c-0.5,5.1-3.6,9.3-6.2,13.8c-2,3.4-1.8,5.5-0.4,9.2c1,2.7,1.2,7.4,3.7,9.3
		c2.9,2,5.8,3.1,9.4,2.5c0.1,0,0.2-0.1,0.3-0.2c0.4,0.1,0.7,0,1-0.2c1.3-0.8,2.6-1.7,3.9-2.6c0.5-0.4,1.4-1,1.2-1.8
		c-0.1-0.4-0.3-0.6-0.6-0.7c0.3-0.3,0.6-0.6,0.7-1c0.1-0.3-0.1-0.6-0.3-0.8c-0.6-0.4-1.3-0.6-2-0.6c-0.8-7.1,3.4-14.7,1.7-21.5
		c0-1.3,0-2.5-0.1-3.8c0-1.4,0.1-2.9-0.3-4.3c1.4-0.7,2-2.3,2.2-4c0.1-1.1-0.1-1.6,0.5-2.9c0.2-0.4,0.5-0.9,0.6-1.4
		c0-1.2-0.6-1.8-1.2-2.7c2.6-8.6,4.7-17.3,6.8-26c2-8.1,4.5-16.3,6-24.5c0.1-0.3,0.2-0.5,0.3-0.8c1.3-3.7,0.9-7.3,0.6-11.1
		c-0.4-4,0.5-7.8,1.1-11.7c1.2,10.8,2.7,21.5,0.9,32.4c-1.7,10.3-7.6,19.6-10.4,29.6c-1.3,4.7-1.3,9.6-1.5,14.4
		c-0.2,6-0.3,12-0.2,18c0.1,8.3-0.1,17.2,0.9,25.6c-1.3,12-3.2,23.9-5.1,35.9c-1.6,9.8-2.9,19.9-3.1,29.9c-0.6,1.3-1.1,2.7-1.7,4
		c-2.9,7.1-7.9,16.4-7.3,24.6c-3.5,16.8-10.2,32.8-17.6,48.2c-4.2,8.8-9.6,16.8-16.4,23.8c-5.5,5.6-13.8,10.9-16.1,18.8
		c-2.1,6.9,5.2,11,10.9,11.6c4,0.4,8.4-0.5,12.4-1.1c5.7-0.9,11.5-1.6,17.2-0.5c4,0.8,7.5,2.7,11.7,2.6c3.8-0.1,7.5-2.4,10.5-4.5
		c0,0,0,0,0.1,0c6.7,2.7,13.7,4.4,21.1,4.4c4.5-0.1,9-1.1,13.1-2.9c5.8-2.5,11.7-6,18.2-4c4.5,1.4,7.6,3.4,12.5,2.8
		c6.4-0.9,12.6-2.2,19.1-2.6c5.9-0.3,11.8,0.2,17.5,2c5.1,1.6,9.8,4.7,14.3,7.5c8,5,16,9.3,25.8,8c7.6-1,18.9-3.5,16.1-13.4
		c-1.1-4-4.8-7.5-7.3-10.7c-3.8-4.9-7.5-9.9-11.2-14.9c-6.5-9.1-12.6-18.5-17.9-28.4c-1.4-2.6-2.7-5.3-4-8c-1.6-6-3-12.1-4.1-18.3
		c-1.3-7.6-1.3-15.9-4.4-23.1c-0.8-1.8-1.7-3.5-2.6-5.1c0.9-19.3,1.2-38.7,1.2-58c0-10.1-0.1-20.2-0.3-30.3
		c-0.1-5.1,0.1-10.5-0.3-15.7c0.6-10.8,0.4-21.6-1.8-32.1c-3.2-16-12-30.1-17-45.4c-0.1-7.1,1.6-14.5,2.9-21.3
		c1-5.1,2.5-10.1,3.7-15.2c0.4-1.8,0.4-3.5-0.2-5c0.5-2.6,1.1-5.2,1.6-7.8c0.3,1.6,0.6,3.1,1,4.7c1.1,4.8,2.7,9.6,4.4,14.2
		c3.3,8.4,7.7,16.1,12.9,23.5c3.7,9.1,8.8,17.4,14.9,25.2c8.3,10.6,16.6,21,24.4,31.9c-0.4,0.6-0.8,1.3-1.3,1.9
		c-0.5,0.6-0.8,1.3-0.8,2.1c0.1,3,0.4,5.9,1.8,8.6c0.1,1.7,0.2,3.5,0.6,5.2c0.3,1.7,1.2,2.6,2.5,3.2c0.3,1.1,0.7,2.2,1.3,3.2
		c-0.8,1.4-1.5,3.3-0.6,4.4c1.5,2,3.9,2.1,6.3,2.4c2.6,0.3,3.9-0.8,5.7-2.7c1.9-2,3.6-4.2,5.2-6.5c0.1,0.3,0.3,0.6,0.4,1
		c-0.4,1.2-0.4,2.5-0.1,3.9c0.2,1.1,2.1,4.2,3.6,3.3c2.3-1.4,2.3-5,2.5-7.4c0.2-3.1-0.6-6.1-1.4-9.1c0.6,1.1,1.4,2,2.3,2.5
		c0.4,0.2,1,0.1,1.2-0.3c1.5-3.3,1.4-8.8-1.5-11.3c-1.3-2.2-2.6-4.4-3.9-6.6c1.9-1.6,3.3-3.8,4.4-6.2c2.5-5,5.1-9.9,8.1-14.7
		c4.8-7.8,10.4-15.5,14-24c0.5-0.2,1-0.4,1.5-0.6c1.3-0.5,3-0.7,3.8-2.1c2.9-5.5,5.4-11.3,8-16.9c3.9-8.3,8-16.6,11.8-25
		c0.4,2.6,0.8,5.2,1,7.8c0.6,6.6-0.6,12.9-2,19.3c-1.2,5.7-0.9,11.5-0.9,17.3c0,2.2-1.3,6-0.4,8c0,0.1,0.1,0.1,0.1,0.2
		c-1.2,4.9-2.6,9.9-2.4,14.9c0.3,7.9,0.9,15.8,1.3,23.7c0.9,16.2,1.8,32-1.2,48c-0.1,0.4,0.1,0.7,0.4,1c1.2,0.9,2.5,1.8,3.8,2.6
		c1.4,4.9,2.7,9.7,3.7,14.7c1.4,7.1,1.7,14.2,2,21.3c0.6,13,5.7,24.9,8,37.7c2.5,13.6,4.1,27.6,5.7,41.4c1.6,13.7-0.4,27.6,1.5,41.3
		c0,0.2,0.1,0.4,0.3,0.5c0.4,5,14.7,5.1,17.6,5.6c2.1,0.3,3.3,2.1,5.2,2.7c2.3,0.7,4.7,0.7,7.1,0.5c4.8-0.3,9.3-2.2,13.2-4.9
		c0.3,0.2,0.8,0,0.8-0.5c0.5-6-1.2-12.1-1.2-18.1c0-5.7,1.5-11.3,3.2-16.7c3.3-10.4,8.4-20.1,10.8-30.8c1.2-5.3,1.3-10.8,1.4-16.2
		c0.2-6.9,1.3-12.8,4.3-19c2.3-4.7,4.4-9.3,5-14.5c0.7-5.6,0.4-11.1-0.2-16.7c0.5-1.5,0.9-3,1.3-4.4c2-7.2,2.5-14.7,4.5-21.8
		c1-3.6,2.6-7,3.5-10.7c0.7-3.2,1.1-6.5,1.4-9.7c0.8-7.1,1.6-14.3,2.1-21.4c3.3,1.2,8.1,2.3,8.9-0.3c0.4-1.2,0.3-2.3,1-3.5
		c0.7-1.3,2.2-1.9,2.9-3.2c1-1.6,0.8-3,0.2-4.5c1.6-1.5,3.2-3.1,3.7-5c0.6-2,0.8-4.2,0.8-6.5c2.4-4.9,4.2-10,6.1-15.1
		c3.2-8.9,6.9-18.6,7.5-28.2c0.1-0.3,0.1-0.5,0.2-0.8C497.2,651.6,496,647.2,495.5,641.8z"/>
</g>
</svg>
